# xmcd
#
# Track frame offsets:
#	150
#	13845
#	28207
#	47475
#	57737
#	77027
#	95340
#	113137
#	129297
#	140167
#	158100
#
# Disc length: 2388 seconds
# Revision: 6
# Processed by: cddbd v1.5.2PL0 Copyright (c) Steve Scherf et al.
# Submitted via: dBpowerAMP V12.0
#
DISCID=9309520b
DTITLE=Kim Wilson - That's Life
DYEAR=1994
DGENRE=Blues
TTITLE0=Baby Please Don't Lie to me
TTITLE1=Time is on my Side
TTITLE2=Don't Bite The Hand That Feeds You
TTITLE3=She's my Baby
TTITLE4=Ooh Baby (When You Squeeze Me)
TTITLE5=Humpin' to Please
TTITLE6=I've Been Searchin'
TTITLE7=Pretty Baby
TTITLE8=Teach me (How to Love You)
TTITLE9=Blues Leave me Alone
TTITLE10=Lowdown
EXTD=
EXTT0=
EXTT1=
EXTT2=
EXTT3=
EXTT4=
EXTT5=
EXTT6=
EXTT7=
EXTT8=
EXTT9=
EXTT10=
PLAYORDER=
